<mxfile host="app.diagrams.net" modified="2024-03-29T02:01:12.461Z" agent="Mozilla/5.0 (Windows NT 10.0; Win64; x64) AppleWebKit/537.36 (KHTML, like Gecko) Chrome/123.0.0.0 Safari/537.36" etag="vDphdeYvhNzmrBiXp5Ci" version="24.2.0" type="device">
  <diagram id="C5RBs43oDa-KdzZeNtuy" name="Page-1">
    <mxGraphModel dx="1221" dy="2956" grid="1" gridSize="10" guides="1" tooltips="1" connect="1" arrows="1" fold="1" page="1" pageScale="1" pageWidth="827" pageHeight="1169" math="0" shadow="0">
      <root>
        <mxCell id="WIyWlLk6GJQsqaUBKTNV-0" />
        <mxCell id="WIyWlLk6GJQsqaUBKTNV-1" parent="WIyWlLk6GJQsqaUBKTNV-0" />
        <mxCell id="yjtGQ7RGN0hBUd9_Rbl--0" value="김재아" style="rounded=0;whiteSpace=wrap;html=1;fillColor=#dae8fc;strokeColor=#6c8ebf;" parent="WIyWlLk6GJQsqaUBKTNV-1" vertex="1">
          <mxGeometry x="80" y="40" width="120" height="60" as="geometry" />
        </mxCell>
        <mxCell id="yjtGQ7RGN0hBUd9_Rbl--1" value="김종원" style="rounded=0;whiteSpace=wrap;html=1;" parent="WIyWlLk6GJQsqaUBKTNV-1" vertex="1">
          <mxGeometry x="80" y="390" width="120" height="60" as="geometry" />
        </mxCell>
        <mxCell id="yjtGQ7RGN0hBUd9_Rbl--2" value="박정태" style="rounded=0;whiteSpace=wrap;html=1;" parent="WIyWlLk6GJQsqaUBKTNV-1" vertex="1">
          <mxGeometry x="80" y="320" width="120" height="60" as="geometry" />
        </mxCell>
        <mxCell id="yjtGQ7RGN0hBUd9_Rbl--3" value="박경준" style="rounded=0;whiteSpace=wrap;html=1;fillColor=#d5e8d4;strokeColor=#82b366;" parent="WIyWlLk6GJQsqaUBKTNV-1" vertex="1">
          <mxGeometry x="80" y="110" width="120" height="60" as="geometry" />
        </mxCell>
        <mxCell id="yjtGQ7RGN0hBUd9_Rbl--4" value="조한홍" style="rounded=0;whiteSpace=wrap;html=1;fillColor=#ffe6cc;strokeColor=#d79b00;" parent="WIyWlLk6GJQsqaUBKTNV-1" vertex="1">
          <mxGeometry x="280" y="180" width="120" height="60" as="geometry" />
        </mxCell>
        <mxCell id="yjtGQ7RGN0hBUd9_Rbl--5" value="조승환" style="rounded=0;whiteSpace=wrap;html=1;fillColor=#dae8fc;strokeColor=#6c8ebf;" parent="WIyWlLk6GJQsqaUBKTNV-1" vertex="1">
          <mxGeometry x="280" y="40" width="120" height="60" as="geometry" />
        </mxCell>
        <mxCell id="yjtGQ7RGN0hBUd9_Rbl--6" value="박현수" style="rounded=0;whiteSpace=wrap;html=1;" parent="WIyWlLk6GJQsqaUBKTNV-1" vertex="1">
          <mxGeometry x="80" y="250" width="120" height="60" as="geometry" />
        </mxCell>
        <mxCell id="yjtGQ7RGN0hBUd9_Rbl--7" value="박철연" style="rounded=0;whiteSpace=wrap;html=1;" parent="WIyWlLk6GJQsqaUBKTNV-1" vertex="1">
          <mxGeometry x="280" y="320" width="120" height="60" as="geometry" />
        </mxCell>
        <mxCell id="yjtGQ7RGN0hBUd9_Rbl--8" value="김효진" style="rounded=0;whiteSpace=wrap;html=1;" parent="WIyWlLk6GJQsqaUBKTNV-1" vertex="1">
          <mxGeometry x="280" y="250" width="120" height="60" as="geometry" />
        </mxCell>
        <mxCell id="yjtGQ7RGN0hBUd9_Rbl--9" value="양혜지" style="rounded=0;whiteSpace=wrap;html=1;fillColor=#ffe6cc;strokeColor=#d79b00;" parent="WIyWlLk6GJQsqaUBKTNV-1" vertex="1">
          <mxGeometry x="80" y="180" width="120" height="60" as="geometry" />
        </mxCell>
        <mxCell id="yjtGQ7RGN0hBUd9_Rbl--10" value="안유정" style="rounded=0;whiteSpace=wrap;html=1;fillColor=#d5e8d4;strokeColor=#82b366;" parent="WIyWlLk6GJQsqaUBKTNV-1" vertex="1">
          <mxGeometry x="280" y="110" width="120" height="60" as="geometry" />
        </mxCell>
        <mxCell id="yjtGQ7RGN0hBUd9_Rbl--11" value="이정완" style="rounded=0;whiteSpace=wrap;html=1;" parent="WIyWlLk6GJQsqaUBKTNV-1" vertex="1">
          <mxGeometry x="280" y="390" width="120" height="60" as="geometry" />
        </mxCell>
        <mxCell id="yjtGQ7RGN0hBUd9_Rbl--12" value="확정임" style="rounded=1;whiteSpace=wrap;html=1;" parent="WIyWlLk6GJQsqaUBKTNV-1" vertex="1">
          <mxGeometry x="180" y="-40" width="120" height="60" as="geometry" />
        </mxCell>
        <mxCell id="yjtGQ7RGN0hBUd9_Rbl--13" value="«interface»&lt;br&gt;&lt;b&gt;IUI&lt;/b&gt;&lt;div&gt;&lt;b&gt;&lt;br&gt;&lt;/b&gt;&lt;/div&gt;&lt;div&gt;&lt;b&gt;{get, set} sortingOrder : int&lt;/b&gt;&lt;/div&gt;&lt;div&gt;&lt;b&gt;{get, set} inputActionEnable : bool&lt;/b&gt;&lt;/div&gt;&lt;div&gt;&lt;b&gt;&lt;br&gt;&lt;/b&gt;&lt;/div&gt;&lt;div&gt;Show() : void&lt;/div&gt;&lt;div&gt;Hide() : void&lt;/div&gt;&lt;div&gt;InputAction() : void&lt;/div&gt;&lt;div&gt;Raycast(result : List&amp;lt;RaycastResult&amp;gt;) : bool&lt;/div&gt;" style="html=1;whiteSpace=wrap;" parent="WIyWlLk6GJQsqaUBKTNV-1" vertex="1">
          <mxGeometry x="360" y="-1304" width="265" height="190" as="geometry" />
        </mxCell>
        <mxCell id="yjtGQ7RGN0hBUd9_Rbl--16" value="UIScreenBase" style="swimlane;fontStyle=1;align=center;verticalAlign=top;childLayout=stackLayout;horizontal=1;startSize=26;horizontalStack=0;resizeParent=1;resizeParentMax=0;resizeLast=0;collapsible=1;marginBottom=0;whiteSpace=wrap;html=1;" parent="WIyWlLk6GJQsqaUBKTNV-1" vertex="1">
          <mxGeometry x="900" y="-1270" width="160" height="34" as="geometry" />
        </mxCell>
        <mxCell id="yjtGQ7RGN0hBUd9_Rbl--18" value="" style="line;strokeWidth=1;fillColor=none;align=left;verticalAlign=middle;spacingTop=-1;spacingLeft=3;spacingRight=3;rotatable=0;labelPosition=right;points=[];portConstraint=eastwest;strokeColor=inherit;" parent="yjtGQ7RGN0hBUd9_Rbl--16" vertex="1">
          <mxGeometry y="26" width="160" height="8" as="geometry" />
        </mxCell>
        <mxCell id="yjtGQ7RGN0hBUd9_Rbl--21" value="UIPopUpBase" style="swimlane;fontStyle=1;align=center;verticalAlign=top;childLayout=stackLayout;horizontal=1;startSize=26;horizontalStack=0;resizeParent=1;resizeParentMax=0;resizeLast=0;collapsible=1;marginBottom=0;whiteSpace=wrap;html=1;" parent="WIyWlLk6GJQsqaUBKTNV-1" vertex="1">
          <mxGeometry x="907" y="-1192" width="160" height="34" as="geometry" />
        </mxCell>
        <mxCell id="yjtGQ7RGN0hBUd9_Rbl--22" value="" style="line;strokeWidth=1;fillColor=none;align=left;verticalAlign=middle;spacingTop=-1;spacingLeft=3;spacingRight=3;rotatable=0;labelPosition=right;points=[];portConstraint=eastwest;strokeColor=inherit;" parent="yjtGQ7RGN0hBUd9_Rbl--21" vertex="1">
          <mxGeometry y="26" width="160" height="8" as="geometry" />
        </mxCell>
        <mxCell id="yjtGQ7RGN0hBUd9_Rbl--24" value="UIManager" style="swimlane;fontStyle=1;align=center;verticalAlign=top;childLayout=stackLayout;horizontal=1;startSize=26;horizontalStack=0;resizeParent=1;resizeParentMax=0;resizeLast=0;collapsible=1;marginBottom=0;whiteSpace=wrap;html=1;" parent="WIyWlLk6GJQsqaUBKTNV-1" vertex="1">
          <mxGeometry x="55" y="-1330" width="205" height="242" as="geometry" />
        </mxCell>
        <mxCell id="yjtGQ7RGN0hBUd9_Rbl--25" value="- uis : Dictionary&amp;lt;Type, IUI&amp;gt;" style="text;strokeColor=none;fillColor=none;align=left;verticalAlign=top;spacingLeft=4;spacingRight=4;overflow=hidden;rotatable=0;points=[[0,0.5],[1,0.5]];portConstraint=eastwest;whiteSpace=wrap;html=1;" parent="yjtGQ7RGN0hBUd9_Rbl--24" vertex="1">
          <mxGeometry y="26" width="205" height="26" as="geometry" />
        </mxCell>
        <mxCell id="yjtGQ7RGN0hBUd9_Rbl--29" value="- screens : List&amp;lt;IUI&amp;gt;" style="text;strokeColor=none;fillColor=none;align=left;verticalAlign=top;spacingLeft=4;spacingRight=4;overflow=hidden;rotatable=0;points=[[0,0.5],[1,0.5]];portConstraint=eastwest;whiteSpace=wrap;html=1;" parent="yjtGQ7RGN0hBUd9_Rbl--24" vertex="1">
          <mxGeometry y="52" width="205" height="26" as="geometry" />
        </mxCell>
        <mxCell id="yjtGQ7RGN0hBUd9_Rbl--30" value="- popups : Stack&amp;lt;IUI&amp;gt;" style="text;strokeColor=none;fillColor=none;align=left;verticalAlign=top;spacingLeft=4;spacingRight=4;overflow=hidden;rotatable=0;points=[[0,0.5],[1,0.5]];portConstraint=eastwest;whiteSpace=wrap;html=1;" parent="yjtGQ7RGN0hBUd9_Rbl--24" vertex="1">
          <mxGeometry y="78" width="205" height="26" as="geometry" />
        </mxCell>
        <mxCell id="yjtGQ7RGN0hBUd9_Rbl--26" value="" style="line;strokeWidth=1;fillColor=none;align=left;verticalAlign=middle;spacingTop=-1;spacingLeft=3;spacingRight=3;rotatable=0;labelPosition=right;points=[];portConstraint=eastwest;strokeColor=inherit;" parent="yjtGQ7RGN0hBUd9_Rbl--24" vertex="1">
          <mxGeometry y="104" width="205" height="8" as="geometry" />
        </mxCell>
        <mxCell id="yjtGQ7RGN0hBUd9_Rbl--27" value="+ RegisterScreen(ui : IUI) : void" style="text;strokeColor=none;fillColor=none;align=left;verticalAlign=top;spacingLeft=4;spacingRight=4;overflow=hidden;rotatable=0;points=[[0,0.5],[1,0.5]];portConstraint=eastwest;whiteSpace=wrap;html=1;" parent="yjtGQ7RGN0hBUd9_Rbl--24" vertex="1">
          <mxGeometry y="112" width="205" height="26" as="geometry" />
        </mxCell>
        <mxCell id="yjtGQ7RGN0hBUd9_Rbl--28" value="+ RegisterPopUp(ui : IUI) : void" style="text;strokeColor=none;fillColor=none;align=left;verticalAlign=top;spacingLeft=4;spacingRight=4;overflow=hidden;rotatable=0;points=[[0,0.5],[1,0.5]];portConstraint=eastwest;whiteSpace=wrap;html=1;" parent="yjtGQ7RGN0hBUd9_Rbl--24" vertex="1">
          <mxGeometry y="138" width="205" height="26" as="geometry" />
        </mxCell>
        <mxCell id="yjtGQ7RGN0hBUd9_Rbl--36" value="+ Get&amp;lt;T&amp;gt;() : T" style="text;strokeColor=none;fillColor=none;align=left;verticalAlign=top;spacingLeft=4;spacingRight=4;overflow=hidden;rotatable=0;points=[[0,0.5],[1,0.5]];portConstraint=eastwest;whiteSpace=wrap;html=1;" parent="yjtGQ7RGN0hBUd9_Rbl--24" vertex="1">
          <mxGeometry y="164" width="205" height="26" as="geometry" />
        </mxCell>
        <mxCell id="yjtGQ7RGN0hBUd9_Rbl--34" value="+ PushPopup(ui : IUI) : void" style="text;strokeColor=none;fillColor=none;align=left;verticalAlign=top;spacingLeft=4;spacingRight=4;overflow=hidden;rotatable=0;points=[[0,0.5],[1,0.5]];portConstraint=eastwest;whiteSpace=wrap;html=1;" parent="yjtGQ7RGN0hBUd9_Rbl--24" vertex="1">
          <mxGeometry y="190" width="205" height="26" as="geometry" />
        </mxCell>
        <mxCell id="yjtGQ7RGN0hBUd9_Rbl--35" value="+ PopPopup(ui : IUI) : void" style="text;strokeColor=none;fillColor=none;align=left;verticalAlign=top;spacingLeft=4;spacingRight=4;overflow=hidden;rotatable=0;points=[[0,0.5],[1,0.5]];portConstraint=eastwest;whiteSpace=wrap;html=1;" parent="yjtGQ7RGN0hBUd9_Rbl--24" vertex="1">
          <mxGeometry y="216" width="205" height="26" as="geometry" />
        </mxCell>
        <mxCell id="yjtGQ7RGN0hBUd9_Rbl--32" value="1" style="endArrow=open;html=1;endSize=12;startArrow=diamondThin;startSize=14;startFill=0;edgeStyle=orthogonalEdgeStyle;align=left;verticalAlign=bottom;rounded=0;" parent="WIyWlLk6GJQsqaUBKTNV-1" source="yjtGQ7RGN0hBUd9_Rbl--24" target="yjtGQ7RGN0hBUd9_Rbl--13" edge="1">
          <mxGeometry x="-1" y="3" relative="1" as="geometry">
            <mxPoint x="260" y="-1080" as="sourcePoint" />
            <mxPoint x="420" y="-1080" as="targetPoint" />
          </mxGeometry>
        </mxCell>
        <mxCell id="odvmMCuuiWnAz9NXcuGv-8" value="UIBase" style="swimlane;fontStyle=1;align=center;verticalAlign=top;childLayout=stackLayout;horizontal=1;startSize=26;horizontalStack=0;resizeParent=1;resizeParentMax=0;resizeLast=0;collapsible=1;marginBottom=0;whiteSpace=wrap;html=1;" vertex="1" parent="WIyWlLk6GJQsqaUBKTNV-1">
          <mxGeometry x="690" y="-1226" width="160" height="34" as="geometry" />
        </mxCell>
        <mxCell id="odvmMCuuiWnAz9NXcuGv-9" value="" style="line;strokeWidth=1;fillColor=none;align=left;verticalAlign=middle;spacingTop=-1;spacingLeft=3;spacingRight=3;rotatable=0;labelPosition=right;points=[];portConstraint=eastwest;strokeColor=inherit;" vertex="1" parent="odvmMCuuiWnAz9NXcuGv-8">
          <mxGeometry y="26" width="160" height="8" as="geometry" />
        </mxCell>
        <mxCell id="odvmMCuuiWnAz9NXcuGv-10" value="" style="endArrow=block;endSize=16;endFill=0;html=1;rounded=0;" edge="1" parent="WIyWlLk6GJQsqaUBKTNV-1" source="odvmMCuuiWnAz9NXcuGv-8" target="yjtGQ7RGN0hBUd9_Rbl--13">
          <mxGeometry width="160" relative="1" as="geometry">
            <mxPoint x="550" y="-1140" as="sourcePoint" />
            <mxPoint x="680" y="-1100" as="targetPoint" />
          </mxGeometry>
        </mxCell>
        <mxCell id="odvmMCuuiWnAz9NXcuGv-11" value="" style="endArrow=block;endSize=16;endFill=0;html=1;rounded=0;" edge="1" parent="WIyWlLk6GJQsqaUBKTNV-1" source="yjtGQ7RGN0hBUd9_Rbl--16" target="odvmMCuuiWnAz9NXcuGv-8">
          <mxGeometry width="160" relative="1" as="geometry">
            <mxPoint x="700" y="-1199" as="sourcePoint" />
            <mxPoint x="635" y="-1199" as="targetPoint" />
          </mxGeometry>
        </mxCell>
        <mxCell id="odvmMCuuiWnAz9NXcuGv-12" value="" style="endArrow=block;endSize=16;endFill=0;html=1;rounded=0;" edge="1" parent="WIyWlLk6GJQsqaUBKTNV-1" source="yjtGQ7RGN0hBUd9_Rbl--21" target="odvmMCuuiWnAz9NXcuGv-8">
          <mxGeometry width="160" relative="1" as="geometry">
            <mxPoint x="910" y="-1226" as="sourcePoint" />
            <mxPoint x="860" y="-1216" as="targetPoint" />
          </mxGeometry>
        </mxCell>
        <mxCell id="odvmMCuuiWnAz9NXcuGv-16" value="사자" style="html=1;whiteSpace=wrap;" vertex="1" parent="WIyWlLk6GJQsqaUBKTNV-1">
          <mxGeometry x="170" y="-960" width="110" height="50" as="geometry" />
        </mxCell>
        <mxCell id="odvmMCuuiWnAz9NXcuGv-19" value="흑인" style="html=1;whiteSpace=wrap;" vertex="1" parent="WIyWlLk6GJQsqaUBKTNV-1">
          <mxGeometry x="55" y="-900" width="110" height="50" as="geometry" />
        </mxCell>
        <mxCell id="odvmMCuuiWnAz9NXcuGv-20" value="독수리" style="html=1;whiteSpace=wrap;" vertex="1" parent="WIyWlLk6GJQsqaUBKTNV-1">
          <mxGeometry x="170" y="-900" width="110" height="50" as="geometry" />
        </mxCell>
        <mxCell id="odvmMCuuiWnAz9NXcuGv-21" value="비둘기" style="html=1;whiteSpace=wrap;" vertex="1" parent="WIyWlLk6GJQsqaUBKTNV-1">
          <mxGeometry x="170" y="-840" width="110" height="50" as="geometry" />
        </mxCell>
        <mxCell id="odvmMCuuiWnAz9NXcuGv-22" value="객체 선정&lt;div&gt;(우리 프로그램에 필요한 객체들 나열&lt;/div&gt;" style="html=1;whiteSpace=wrap;" vertex="1" parent="WIyWlLk6GJQsqaUBKTNV-1">
          <mxGeometry x="60" y="-1030" width="220" height="50" as="geometry" />
        </mxCell>
        <mxCell id="odvmMCuuiWnAz9NXcuGv-23" value="추상화&lt;div&gt;(공통적인 특징을 묶어서 추상적인 개념만들기)&lt;/div&gt;" style="html=1;whiteSpace=wrap;" vertex="1" parent="WIyWlLk6GJQsqaUBKTNV-1">
          <mxGeometry x="435" y="-1030" width="220" height="50" as="geometry" />
        </mxCell>
        <mxCell id="odvmMCuuiWnAz9NXcuGv-24" value="Creature" style="html=1;whiteSpace=wrap;" vertex="1" parent="WIyWlLk6GJQsqaUBKTNV-1">
          <mxGeometry x="490" y="-960" width="110" height="50" as="geometry" />
        </mxCell>
        <mxCell id="odvmMCuuiWnAz9NXcuGv-25" value="황인" style="html=1;whiteSpace=wrap;" vertex="1" parent="WIyWlLk6GJQsqaUBKTNV-1">
          <mxGeometry x="55" y="-840" width="110" height="50" as="geometry" />
        </mxCell>
        <mxCell id="odvmMCuuiWnAz9NXcuGv-26" value="Human" style="html=1;whiteSpace=wrap;" vertex="1" parent="WIyWlLk6GJQsqaUBKTNV-1">
          <mxGeometry x="350" y="-880" width="110" height="50" as="geometry" />
        </mxCell>
        <mxCell id="odvmMCuuiWnAz9NXcuGv-27" value="Animal" style="html=1;whiteSpace=wrap;" vertex="1" parent="WIyWlLk6GJQsqaUBKTNV-1">
          <mxGeometry x="610" y="-880" width="110" height="50" as="geometry" />
        </mxCell>
        <mxCell id="odvmMCuuiWnAz9NXcuGv-28" value="Black" style="html=1;whiteSpace=wrap;" vertex="1" parent="WIyWlLk6GJQsqaUBKTNV-1">
          <mxGeometry x="300" y="-790" width="110" height="50" as="geometry" />
        </mxCell>
        <mxCell id="odvmMCuuiWnAz9NXcuGv-29" value="Yellow" style="html=1;whiteSpace=wrap;" vertex="1" parent="WIyWlLk6GJQsqaUBKTNV-1">
          <mxGeometry x="415" y="-790" width="110" height="50" as="geometry" />
        </mxCell>
        <mxCell id="odvmMCuuiWnAz9NXcuGv-30" value="Cat" style="html=1;whiteSpace=wrap;" vertex="1" parent="WIyWlLk6GJQsqaUBKTNV-1">
          <mxGeometry x="580" y="-790" width="110" height="50" as="geometry" />
        </mxCell>
        <mxCell id="odvmMCuuiWnAz9NXcuGv-31" value="Bird" style="html=1;whiteSpace=wrap;" vertex="1" parent="WIyWlLk6GJQsqaUBKTNV-1">
          <mxGeometry x="710" y="-790" width="110" height="50" as="geometry" />
        </mxCell>
        <mxCell id="odvmMCuuiWnAz9NXcuGv-32" value="독수리" style="html=1;whiteSpace=wrap;" vertex="1" parent="WIyWlLk6GJQsqaUBKTNV-1">
          <mxGeometry x="690" y="-700" width="110" height="50" as="geometry" />
        </mxCell>
        <mxCell id="odvmMCuuiWnAz9NXcuGv-33" value="비둘기" style="html=1;whiteSpace=wrap;" vertex="1" parent="WIyWlLk6GJQsqaUBKTNV-1">
          <mxGeometry x="820" y="-700" width="110" height="50" as="geometry" />
        </mxCell>
        <mxCell id="odvmMCuuiWnAz9NXcuGv-34" value="펭귄" style="html=1;whiteSpace=wrap;" vertex="1" parent="WIyWlLk6GJQsqaUBKTNV-1">
          <mxGeometry x="55" y="-960" width="110" height="50" as="geometry" />
        </mxCell>
        <mxCell id="odvmMCuuiWnAz9NXcuGv-35" value="펭귄" style="html=1;whiteSpace=wrap;" vertex="1" parent="WIyWlLk6GJQsqaUBKTNV-1">
          <mxGeometry x="940" y="-700" width="110" height="50" as="geometry" />
        </mxCell>
        <mxCell id="odvmMCuuiWnAz9NXcuGv-41" value="«interface»&lt;br&gt;&lt;b&gt;IFlyable&lt;/b&gt;&lt;div&gt;&lt;b&gt;&lt;br&gt;&lt;/b&gt;&lt;/div&gt;&lt;div&gt;&lt;b&gt;날기()&lt;/b&gt;&lt;/div&gt;" style="html=1;whiteSpace=wrap;" vertex="1" parent="WIyWlLk6GJQsqaUBKTNV-1">
          <mxGeometry x="800" y="-980" width="128" height="70" as="geometry" />
        </mxCell>
        <mxCell id="odvmMCuuiWnAz9NXcuGv-42" value="" style="endArrow=block;endSize=16;endFill=0;html=1;rounded=0;" edge="1" parent="WIyWlLk6GJQsqaUBKTNV-1" source="odvmMCuuiWnAz9NXcuGv-27" target="odvmMCuuiWnAz9NXcuGv-24">
          <mxGeometry width="160" relative="1" as="geometry">
            <mxPoint x="755" y="-990" as="sourcePoint" />
            <mxPoint x="690" y="-990" as="targetPoint" />
          </mxGeometry>
        </mxCell>
        <mxCell id="odvmMCuuiWnAz9NXcuGv-43" value="" style="endArrow=block;endSize=16;endFill=0;html=1;rounded=0;" edge="1" parent="WIyWlLk6GJQsqaUBKTNV-1" source="odvmMCuuiWnAz9NXcuGv-30" target="odvmMCuuiWnAz9NXcuGv-27">
          <mxGeometry width="160" relative="1" as="geometry">
            <mxPoint x="638" y="-870" as="sourcePoint" />
            <mxPoint x="593" y="-900" as="targetPoint" />
          </mxGeometry>
        </mxCell>
        <mxCell id="odvmMCuuiWnAz9NXcuGv-44" value="" style="endArrow=block;endSize=16;endFill=0;html=1;rounded=0;" edge="1" parent="WIyWlLk6GJQsqaUBKTNV-1" source="odvmMCuuiWnAz9NXcuGv-31" target="odvmMCuuiWnAz9NXcuGv-27">
          <mxGeometry width="160" relative="1" as="geometry">
            <mxPoint x="653" y="-780" as="sourcePoint" />
            <mxPoint x="667" y="-820" as="targetPoint" />
          </mxGeometry>
        </mxCell>
        <mxCell id="odvmMCuuiWnAz9NXcuGv-45" value="" style="endArrow=block;endSize=16;endFill=0;html=1;rounded=0;" edge="1" parent="WIyWlLk6GJQsqaUBKTNV-1" source="odvmMCuuiWnAz9NXcuGv-32" target="odvmMCuuiWnAz9NXcuGv-31">
          <mxGeometry width="160" relative="1" as="geometry">
            <mxPoint x="747" y="-780" as="sourcePoint" />
            <mxPoint x="703" y="-820" as="targetPoint" />
          </mxGeometry>
        </mxCell>
        <mxCell id="odvmMCuuiWnAz9NXcuGv-46" value="" style="endArrow=block;endSize=16;endFill=0;html=1;rounded=0;" edge="1" parent="WIyWlLk6GJQsqaUBKTNV-1" source="odvmMCuuiWnAz9NXcuGv-33" target="odvmMCuuiWnAz9NXcuGv-31">
          <mxGeometry width="160" relative="1" as="geometry">
            <mxPoint x="761" y="-690" as="sourcePoint" />
            <mxPoint x="769" y="-730" as="targetPoint" />
          </mxGeometry>
        </mxCell>
        <mxCell id="odvmMCuuiWnAz9NXcuGv-47" value="" style="endArrow=block;endSize=16;endFill=0;html=1;rounded=0;" edge="1" parent="WIyWlLk6GJQsqaUBKTNV-1" source="odvmMCuuiWnAz9NXcuGv-35" target="odvmMCuuiWnAz9NXcuGv-31">
          <mxGeometry width="160" relative="1" as="geometry">
            <mxPoint x="854" y="-690" as="sourcePoint" />
            <mxPoint x="806" y="-730" as="targetPoint" />
          </mxGeometry>
        </mxCell>
        <mxCell id="odvmMCuuiWnAz9NXcuGv-48" value="" style="endArrow=block;endSize=16;endFill=0;html=1;rounded=0;fillColor=#f8cecc;strokeColor=#b85450;" edge="1" parent="WIyWlLk6GJQsqaUBKTNV-1" source="odvmMCuuiWnAz9NXcuGv-32" target="odvmMCuuiWnAz9NXcuGv-41">
          <mxGeometry width="160" relative="1" as="geometry">
            <mxPoint x="950" y="-687" as="sourcePoint" />
            <mxPoint x="830" y="-733" as="targetPoint" />
          </mxGeometry>
        </mxCell>
        <mxCell id="odvmMCuuiWnAz9NXcuGv-49" value="" style="endArrow=block;endSize=16;endFill=0;html=1;rounded=0;fillColor=#f8cecc;strokeColor=#b85450;" edge="1" parent="WIyWlLk6GJQsqaUBKTNV-1" source="odvmMCuuiWnAz9NXcuGv-33" target="odvmMCuuiWnAz9NXcuGv-41">
          <mxGeometry width="160" relative="1" as="geometry">
            <mxPoint x="778" y="-690" as="sourcePoint" />
            <mxPoint x="949" y="-880" as="targetPoint" />
          </mxGeometry>
        </mxCell>
        <mxCell id="odvmMCuuiWnAz9NXcuGv-50" value="«interface»&lt;br&gt;&lt;b&gt;ITwoLegWalkable&lt;/b&gt;&lt;div&gt;&lt;b&gt;&lt;br&gt;&lt;/b&gt;&lt;/div&gt;&lt;div&gt;&lt;b&gt;이족보행()&lt;/b&gt;&lt;/div&gt;" style="html=1;whiteSpace=wrap;" vertex="1" parent="WIyWlLk6GJQsqaUBKTNV-1">
          <mxGeometry x="932" y="-980" width="128" height="70" as="geometry" />
        </mxCell>
        <mxCell id="odvmMCuuiWnAz9NXcuGv-51" value="«interface»&lt;br&gt;&lt;b&gt;IFourLegWalkable&lt;/b&gt;&lt;div&gt;&lt;b&gt;&lt;br&gt;&lt;/b&gt;&lt;/div&gt;&lt;div&gt;&lt;b&gt;사족보행()&lt;/b&gt;&lt;/div&gt;" style="html=1;whiteSpace=wrap;" vertex="1" parent="WIyWlLk6GJQsqaUBKTNV-1">
          <mxGeometry x="1067" y="-980" width="128" height="70" as="geometry" />
        </mxCell>
        <mxCell id="odvmMCuuiWnAz9NXcuGv-52" value="" style="endArrow=block;endSize=16;endFill=0;html=1;rounded=0;fillColor=#dae8fc;strokeColor=#6c8ebf;" edge="1" parent="WIyWlLk6GJQsqaUBKTNV-1" source="odvmMCuuiWnAz9NXcuGv-32" target="odvmMCuuiWnAz9NXcuGv-50">
          <mxGeometry width="160" relative="1" as="geometry">
            <mxPoint x="760" y="-680" as="sourcePoint" />
            <mxPoint x="859" y="-900" as="targetPoint" />
          </mxGeometry>
        </mxCell>
        <mxCell id="odvmMCuuiWnAz9NXcuGv-53" value="" style="endArrow=block;endSize=16;endFill=0;html=1;rounded=0;fillColor=#dae8fc;strokeColor=#6c8ebf;" edge="1" parent="WIyWlLk6GJQsqaUBKTNV-1" source="odvmMCuuiWnAz9NXcuGv-33" target="odvmMCuuiWnAz9NXcuGv-50">
          <mxGeometry width="160" relative="1" as="geometry">
            <mxPoint x="778" y="-690" as="sourcePoint" />
            <mxPoint x="973" y="-900" as="targetPoint" />
          </mxGeometry>
        </mxCell>
        <mxCell id="odvmMCuuiWnAz9NXcuGv-54" value="" style="endArrow=block;endSize=16;endFill=0;html=1;rounded=0;fillColor=#dae8fc;strokeColor=#6c8ebf;" edge="1" parent="WIyWlLk6GJQsqaUBKTNV-1" source="odvmMCuuiWnAz9NXcuGv-35" target="odvmMCuuiWnAz9NXcuGv-50">
          <mxGeometry width="160" relative="1" as="geometry">
            <mxPoint x="896" y="-690" as="sourcePoint" />
            <mxPoint x="990" y="-900" as="targetPoint" />
          </mxGeometry>
        </mxCell>
        <mxCell id="odvmMCuuiWnAz9NXcuGv-55" value="" style="endArrow=block;endSize=16;endFill=0;html=1;rounded=0;fillColor=#dae8fc;strokeColor=#6c8ebf;" edge="1" parent="WIyWlLk6GJQsqaUBKTNV-1" source="odvmMCuuiWnAz9NXcuGv-26" target="odvmMCuuiWnAz9NXcuGv-50">
          <mxGeometry width="160" relative="1" as="geometry">
            <mxPoint x="1005" y="-690" as="sourcePoint" />
            <mxPoint x="1006" y="-900" as="targetPoint" />
          </mxGeometry>
        </mxCell>
        <mxCell id="odvmMCuuiWnAz9NXcuGv-56" value="" style="endArrow=block;endSize=16;endFill=0;html=1;rounded=0;fillColor=#e1d5e7;strokeColor=#9673a6;" edge="1" parent="WIyWlLk6GJQsqaUBKTNV-1" source="odvmMCuuiWnAz9NXcuGv-30" target="odvmMCuuiWnAz9NXcuGv-51">
          <mxGeometry width="160" relative="1" as="geometry">
            <mxPoint x="470" y="-853" as="sourcePoint" />
            <mxPoint x="942" y="-925" as="targetPoint" />
          </mxGeometry>
        </mxCell>
        <mxCell id="odvmMCuuiWnAz9NXcuGv-57" value="클래스화&lt;div&gt;(코드로 옮기기)&lt;/div&gt;" style="html=1;whiteSpace=wrap;" vertex="1" parent="WIyWlLk6GJQsqaUBKTNV-1">
          <mxGeometry x="1230" y="-1040" width="220" height="50" as="geometry" />
        </mxCell>
      </root>
    </mxGraphModel>
  </diagram>
</mxfile>
